<svg width="256px" height="256px" viewBox="-4.32 -4.32 32.64 32.64" version="1.1" xmlns="http://www.w3.org/2000/svg" xmlns:xlink="http://www.w3.org/1999/xlink" fill="#000000" stroke="#000000" transform="matrix(1, 0, 0, 1, 0, 0)rotate(0)"><g id="SVGRepo_bgCarrier" stroke-width="0"><path transform="translate(-4.32, -4.32), scale(1.02)" d="M16,29.66357943508774C18.361206647909565,30.31097710838933,21.2201705413159,31.177159667230285,23.237241016274112,29.78941066954357C25.311695281850927,28.362181495579886,24.877498758360865,25.137846866909918,25.9136990086535,22.84293234643723C26.75048540582554,20.98966773579676,28.311712042433708,19.532347172256802,28.763676506729965,17.54979091465453C29.23854658356414,15.466758471292877,28.996908853653384,13.328019576522864,28.55955829834776,11.236787824242985C28.071208409801656,8.90169808727833,27.7333219685119,6.344373828156262,26.06383960228407,4.640273384469042C24.37661135293511,2.9180590823116246,21.86472025802667,1.7438416219155464,19.462695095165614,1.951293748776262C17.075074562420678,2.157501812418809,15.605688578101473,4.644397373664266,13.468204489194566,5.728101827639714C11.870826100489166,6.5379726863320125,9.943969609610072,6.478665897042243,8.484796254512592,7.5170885683257715C6.950761486163842,8.608786464552844,6.01650321071037,10.26320000554756,4.932405083408371,11.802614900080453C3.563226245696635,13.746843234187265,1.1120388866113566,15.417048333446449,1.2496113621098512,17.79102144171171C1.3851053687046415,20.12912815107793,3.863026782375073,21.60431556509559,5.591968303799298,23.184145564083366C7.063952710598649,24.529179560368103,8.890891529398262,25.266232694104108,10.583629133863155,26.320032460403468C12.411412210150164,27.457903665932726,13.923601792589178,29.0942707854126,16,29.66357943508774" fill="#c7e9f4" strokewidth="0"></path></g><g id="SVGRepo_tracerCarrier" stroke-linecap="round" stroke-linejoin="round"></g><g id="SVGRepo_iconCarrier"> <!-- Uploaded to: SVG Repo, www.svgrepo.com, Generator: SVG Repo Mixer Tools --> <title>ic_fluent_dictionary_24_regular</title> <desc>Created with Sketch.</desc> <g id="ðŸ”-System-Icons" stroke="none" stroke-width="1" fill="none" fill-rule="evenodd"> <g id="ic_fluent_dictionary_24_regular" fill="#181616" fill-rule="nonzero"> <path d="M18,2 C19.3807,2 20.5,3.11929 20.5,4.5 L20.5,18.75 C20.5,19.1642 20.1642,19.5 19.75,19.5 L5.5,19.5 C5.5,20.0523 5.94772,20.5 6.5,20.5 L19.75,20.5 C20.1642,20.5 20.5,20.8358 20.5,21.25 C20.5,21.6642 20.1642,22 19.75,22 L6.5,22 C5.11929,22 4,20.8807 4,19.5 L4,4.5 C4,3.11929 5.11929,2 6.5,2 L18,2 Z M18,3.5 L6.5,3.5 C5.94772,3.5 5.5,3.94772 5.5,4.5 L5.5,18 L19,18 L19,4.5 C19,3.94772 18.5523,3.5 18,3.5 Z M16,5 C16.5523,5 17,5.44772 17,6 L17,8 C17,8.55228 16.5523,9 16,9 L8,9 C7.44772,9 7,8.55228 7,8 L7,6 C7,5.44772 7.44772,5 8,5 L16,5 Z M15.5,6.5 L8.5,6.5 L8.5,7.5 L15.5,7.5 L15.5,6.5 Z" id="ðŸŽ¨-Color"> </path> </g> </g> </g></svg>